<svg width="15" height="15" viewBox="0 0 15 15" fill="none" xmlns="http://www.w3.org/2000/svg">
<g clip-path="url(#clip0_10_2006)">
<path d="M8.87423 7.51229L14.7149 1.67141C15.095 1.29148 15.095 0.677198 14.7149 0.297273C14.335 -0.0826522 13.7207 -0.0826522 13.3408 0.297273L7.49992 6.13815L1.65921 0.297273C1.27911 -0.0826522 0.665002 -0.0826522 0.285077 0.297273C-0.0950257 0.677198 -0.0950257 1.29148 0.285077 1.67141L6.12578 7.51229L0.285077 13.3532C-0.0950257 13.7331 -0.0950257 14.3474 0.285077 14.7273C0.474417 14.9168 0.72337 15.012 0.972145 15.012C1.22092 15.012 1.4697 14.9168 1.65921 14.7273L7.49992 8.88643L13.3408 14.7273C13.5303 14.9168 13.7791 15.012 14.0279 15.012C14.2766 15.012 14.5254 14.9168 14.7149 14.7273C15.095 14.3474 15.095 13.7331 14.7149 13.3532L8.87423 7.51229Z" fill="white"/>
</g>
<defs>
<clipPath id="clip0_10_2006">
<rect width="15" height="15" fill="white"/>
</clipPath>
</defs>
</svg>
