<?xml version="1.0" encoding="UTF-8" standalone="no"?>
<!DOCTYPE svg PUBLIC "-//W3C//DTD SVG 1.1//EN" "http://www.w3.org/Graphics/SVG/1.1/DTD/svg11.dtd">
<svg width="100%" height="100%" viewBox="0 0 15 15" version="1.1" xmlns="http://www.w3.org/2000/svg" xmlns:xlink="http://www.w3.org/1999/xlink" xml:space="preserve" xmlns:serif="http://www.serif.com/" style="fill-rule:evenodd;clip-rule:evenodd;stroke-linejoin:round;stroke-miterlimit:2;">
    <path d="M5.204,8.434L0.285,13.353C-0.095,13.733 -0.095,14.347 0.285,14.727C0.474,14.917 0.723,15.012 0.972,15.012C1.221,15.012 1.47,14.917 1.659,14.727L6.578,9.808L5.204,8.434ZM9.617,8.255L8.242,9.629L13.341,14.727C13.53,14.917 13.779,15.012 14.028,15.012C14.277,15.012 14.525,14.917 14.715,14.727C15.095,14.347 15.095,13.733 14.715,13.353L9.617,8.255ZM8.434,5.204L9.808,6.578L14.715,1.671C15.095,1.291 15.095,0.677 14.715,0.297C14.335,-0.083 13.721,-0.083 13.341,0.297L8.434,5.204ZM5.012,6.399L6.387,5.025L1.659,0.297C1.279,-0.083 0.665,-0.083 0.285,0.297C-0.095,0.677 -0.095,1.291 0.285,1.671L5.012,6.399Z" style="fill-rule:nonzero;"/>
</svg>
