<?xml version="1.0" encoding="UTF-8" standalone="no"?>
<!DOCTYPE svg PUBLIC "-//W3C//DTD SVG 1.1//EN" "http://www.w3.org/Graphics/SVG/1.1/DTD/svg11.dtd">
<svg width="100%" height="100%" viewBox="0 0 1022 1149" version="1.1" xmlns="http://www.w3.org/2000/svg" xmlns:xlink="http://www.w3.org/1999/xlink" xml:space="preserve" xmlns:serif="http://www.serif.com/" style="fill-rule:evenodd;clip-rule:evenodd;stroke-linejoin:round;stroke-miterlimit:2;">
    <g transform="matrix(1,0,0,1,-108.901,-122.4)">
        <path d="M815.362,1271.14L424.396,1271.14L341.809,1071.38C341.809,1071.38 172.655,942.834 122.658,904.842C113.991,898.255 108.901,887.995 108.901,877.109C108.901,839.24 108.901,743.378 108.901,632.188C108.901,350.64 337.141,122.4 618.689,122.4L620.978,122.4C902.526,122.4 1130.77,350.64 1130.77,632.188L1130.77,877.164C1130.77,888.019 1125.7,898.254 1117.08,904.843C1066.92,943.155 896.101,1073.64 896.101,1073.64L815.362,1271.14ZM287.748,661.438C267.506,692.867 260.578,731.048 268.489,767.584C284.951,843.615 360.045,891.977 436.078,875.515C472.615,867.604 504.513,845.503 524.755,814.075L406.252,737.757L287.748,661.438ZM952.248,661.438C972.49,692.867 979.418,731.048 971.508,767.584C955.046,843.615 879.952,891.977 803.918,875.515C767.381,867.604 735.483,845.503 715.241,814.075L833.745,737.757L952.248,661.438Z" style="fill:white;"/>
    </g>
</svg>
