<?xml version="1.0" encoding="UTF-8" standalone="no"?>
<!DOCTYPE svg PUBLIC "-//W3C//DTD SVG 1.1//EN" "http://www.w3.org/Graphics/SVG/1.1/DTD/svg11.dtd">
<svg width="100%" height="100%" viewBox="0 0 21 22" version="1.1" xmlns="http://www.w3.org/2000/svg" xmlns:xlink="http://www.w3.org/1999/xlink" xml:space="preserve" xmlns:serif="http://www.serif.com/" style="fill-rule:evenodd;clip-rule:evenodd;stroke-linejoin:round;stroke-miterlimit:2;">
    <g transform="matrix(1.69842,0,0,1.70555,-5.44885,-7.17946)">
        <rect x="3.208" y="4.49" width="3.338" height="3.338" style="fill:white;"/>
    </g>
    <g transform="matrix(1.69842,0,0,1.70555,9.88164,-7.17946)">
        <rect x="3.208" y="4.49" width="3.338" height="3.338" style="fill:white;"/>
    </g>
    <g transform="matrix(1.69842,0,0,1.70555,-5.44885,8.16922)">
        <rect x="3.208" y="4.49" width="3.338" height="3.338" style="fill:white;"/>
    </g>
    <g transform="matrix(1.69842,0,0,1.70555,9.88164,8.16922)">
        <rect x="3.208" y="4.49" width="3.338" height="3.338" style="fill:white;"/>
    </g>
    <g transform="matrix(1.08691,1.08691,-1.30341,1.30341,18.3,-9.49904)">
        <rect x="5.635" y="6.559" width="0.415" height="8.594" style="fill:white;"/>
    </g>
    <g transform="matrix(-1.08691,1.08691,-1.30341,-1.30341,30.999,18.8)">
        <rect x="5.635" y="6.559" width="0.415" height="8.594" style="fill:white;"/>
    </g>
</svg>
